# xmcd
#
# Track frame offsets: 
#        150
#        18548
#        39524
#        51466
#        67527
#        82282
#
# Disc length: 1324 seconds
#
# Revision: 1
# Processed by: cddbd v1.5.2PL0 Copyright (c) Steve Scherf et al.
# Submitted via: ExactAudioCopy v1.0b1
#
DISCID=4a052a06
DTITLE=H.A.T - Chung Toi La H.A.T
DYEAR=2005
DGENRE=Pop
TTITLE0=Yeu Lam Chi??? (Si Luan)
TTITLE1=Danh Noi Loi Chia Tay (Hoa Khanh)
TTITLE2=Taxi (Si Luan) voi Vuong Khang
TTITLE3=Loi Hua Cho Tinh Yeu (Nguyen Hoai Anh) voi Ung Hoang Phuc
TTITLE4=Sac Mau Trai Tim (Nguyen Ha, Quang Huy)
TTITLE5=Co Tich Anh Va Em (Loi Viet: Quang Huy) voi Vuong Khang
EXTD=
EXTT0=
EXTT1=
EXTT2=
EXTT3=
EXTT4=
EXTT5=
PLAYORDER=
